<?xml version="1.0" standalone="no"?>
<!DOCTYPE svg PUBLIC "-//W3C//DTD SVG 20010904//EN"
 "http://www.w3.org/TR/2001/REC-SVG-20010904/DTD/svg10.dtd">
<svg version="1.0" xmlns="http://www.w3.org/2000/svg"
 width="180.000000pt" height="180.000000pt" viewBox="0 0 180.000000 180.000000"
 preserveAspectRatio="xMidYMid meet">
<metadata>
Created by potrace 1.14, written by Peter Selinger 2001-2017
</metadata>
<g transform="translate(0.000000,180.000000) scale(0.100000,-0.100000)"
fill="#000000" stroke="none">
<path d="M339 1788 c-4 -65 -3 -192 3 -201 4 -7 119 -10 352 -10 190 0 346 -2
346 -6 -1 -5 -269 -174 -310 -194 -8 -4 -53 -32 -100 -62 -47 -30 -131 -82
-187 -117 -85 -52 -103 -67 -104 -88 -1 -31 -1 -83 2 -413 1 -141 -1 -260 -4
-264 -4 -3 1 -15 10 -26 10 -11 13 -17 7 -14 -7 4 -14 -2 -17 -13 -3 -11 -2
-20 1 -20 4 0 7 -63 6 -140 -1 -99 2 -138 10 -133 6 3 5 0 -1 -8 -20 -20 -16
-49 6 -49 11 0 22 -4 25 -9 3 -4 -6 -6 -21 -3 -16 3 -24 1 -20 -5 9 -14 57
-13 57 1 0 6 5 4 10 -4 9 -13 11 -13 20 0 5 8 10 10 10 4 0 -6 14 -11 30 -12
17 0 30 3 30 8 0 4 -11 7 -25 6 -13 -2 -22 1 -19 5 7 12 47 5 52 -9 10 -31 22
-6 22 47 0 54 -2 60 -20 56 -11 -2 -20 1 -20 7 0 5 6 8 13 5 17 -6 47 12 31
19 -6 3 -8 23 -4 54 4 28 2 50 -2 50 -5 0 -6 6 -2 12 10 16 13 48 4 48 -3 0
-12 -6 -20 -13 -12 -10 -12 -9 -2 4 6 9 8 20 4 24 -4 5 -1 5 6 1 14 -8 13 -12
14 115 1 53 -2 101 -6 107 -8 14 21 9 36 -6 8 -8 15 -8 24 -1 8 7 14 6 20 -2
4 -8 3 -9 -4 -5 -7 4 -12 3 -12 -3 0 -12 55 -52 64 -46 3 3 4 2 1 -1 -5 -8 20
-34 33 -34 6 0 12 -6 15 -12 3 -10 8 -9 23 2 17 14 18 14 6 -2 -11 -14 -9 -19
13 -35 14 -10 40 -30 58 -45 18 -15 37 -26 44 -23 7 2 10 -2 6 -11 -3 -7 -1
-14 5 -14 6 0 47 -29 92 -65 46 -35 88 -62 94 -58 6 3 8 3 4 -2 -4 -4 -1 -14
7 -21 20 -20 27 -17 15 6 -8 16 -8 18 4 14 8 -3 13 -14 11 -24 -2 -12 6 -25
23 -36 15 -10 32 -24 38 -32 7 -9 16 -12 24 -7 9 6 11 4 5 -5 -5 -8 -3 -11 6
-8 8 3 13 12 11 22 -2 9 1 16 6 16 4 0 8 -11 8 -24 0 -14 -4 -22 -8 -20 -4 3
-8 1 -8 -4 0 -5 11 -15 25 -22 14 -7 25 -18 25 -23 0 -5 11 -2 25 7 33 22 43
20 15 -2 -22 -18 -20 -18 78 -19 l100 -1 -2 27 c-2 15 -10 27 -21 29 -12 3
-15 0 -10 -9 5 -8 4 -10 -4 -5 -16 11 -2 29 19 23 15 -4 17 7 17 127 1 107 -2
135 -16 151 -14 18 -14 18 0 7 15 -11 17 11 18 275 1 159 2 327 3 376 0 48 -2
90 -5 93 -3 3 -170 6 -371 6 -201 0 -366 1 -366 3 0 2 37 27 83 55 45 28 116
73 157 100 41 27 98 63 125 79 100 61 354 226 366 238 9 9 16 138 10 211 -1
18 -1121 18 -1122 0z m918 -911 c3 -3 6 -120 7 -260 1 -207 4 -258 16 -273 14
-18 14 -18 -2 -5 -16 12 -18 11 -18 -8 0 -15 4 -20 13 -15 9 6 9 5 0 -8 -7 -8
-9 -19 -5 -24 7 -9 -14 9 -84 70 -23 20 -44 33 -48 29 -3 -3 -6 -2 -6 3 0 6
-33 37 -72 69 -40 33 -74 63 -76 67 -2 5 -10 8 -18 8 -8 0 -14 5 -14 11 0 5
-4 7 -10 4 -5 -3 -10 1 -10 9 0 9 -4 16 -10 16 -5 0 -18 8 -28 18 -39 36 -73
62 -83 62 -5 0 -8 4 -5 8 5 9 -54 48 -67 44 -5 -1 -6 2 -2 7 3 6 -7 18 -22 28
-15 10 -38 28 -52 41 -13 12 -46 39 -73 59 -26 21 -48 40 -48 43 0 7 710 4
717 -3z m78 -317 c-3 -5 -12 -10 -18 -10 -7 0 -6 4 3 10 19 12 23 12 15 0z
m-864 -43 c-6 -8 -7 -18 -3 -22 4 -5 1 -5 -6 -1 -10 6 -10 11 -1 22 6 8 14 14
16 14 3 0 0 -6 -6 -13z m348 -1 c9 -11 9 -16 -1 -22 -7 -4 -10 -4 -6 1 4 4 3
14 -3 22 -6 7 -9 13 -6 13 2 0 10 -6 16 -14z m61 8 c0 -8 -19 -13 -24 -6 -3 5
1 9 9 9 8 0 15 -2 15 -3z m507 -13 c0 -11 -5 -18 -9 -15 -4 3 -5 11 -1 19 7
21 12 19 10 -4z m57 3 c3 -8 2 -12 -4 -9 -6 3 -10 10 -10 16 0 14 7 11 14 -7z
m-739 -3 c3 -5 2 -12 -3 -15 -5 -3 -9 1 -9 9 0 17 3 19 12 6z m220 -11 c3 -5
1 -10 -4 -10 -6 0 -11 5 -11 10 0 6 2 10 4 10 3 0 8 -4 11 -10z m-419 -25 c-1
-8 -5 -17 -8 -21 -5 -4 -4 16 1 34 3 9 9 -1 7 -13z m480 -11 c1 -9 0 -13 -4
-10 -3 4 -7 14 -8 22 -1 9 0 13 4 10 3 -4 7 -14 8 -22z m-596 2 c0 -3 -4 -8
-10 -11 -5 -3 -10 -1 -10 4 0 6 5 11 10 11 6 0 10 -2 10 -4z m77 -18 c2 -17 0
-19 -7 -8 -5 8 -6 18 -4 22 8 12 10 10 11 -14z m323 12 c0 -5 -2 -10 -4 -10
-3 0 -8 5 -11 10 -3 6 -1 10 4 10 6 0 11 -4 11 -10z m35 0 c3 -5 1 -10 -4 -10
-6 0 -11 5 -11 10 0 6 2 10 4 10 3 0 8 -4 11 -10z m485 6 c0 -3 -4 -8 -10 -11
-5 -3 -10 -1 -10 4 0 6 5 11 10 11 6 0 10 -2 10 -4z m115 -5 c-9 -8 -36 -10
-30 -2 2 4 11 8 20 8 8 0 13 -3 10 -6z m-1031 -99 c3 -5 -1 -9 -9 -9 -8 0 -12
4 -9 9 3 4 7 8 9 8 2 0 6 -4 9 -8z m653 -17 c0 -8 -4 -12 -9 -9 -5 3 -6 10 -3
15 9 13 12 11 12 -6z m-82 -4 c3 -5 2 -12 -3 -15 -5 -3 -9 1 -9 9 0 17 3 19
12 6z m-565 -17 c0 -8 -19 -13 -24 -6 -3 5 1 9 9 9 8 0 15 -2 15 -3z m744 -2
c3 -5 -1 -9 -9 -9 -8 0 -12 4 -9 9 3 4 7 8 9 8 2 0 6 -4 9 -8z m-14 -37 c13
-14 21 -25 18 -25 -2 0 -15 11 -28 25 -13 14 -21 25 -18 25 2 0 15 -11 28 -25z
m-742 -10 c-3 -3 -9 2 -12 12 -6 14 -5 15 5 6 7 -7 10 -15 7 -18z m560 0 c-3
-3 -9 2 -12 12 -6 14 -5 15 5 6 7 -7 10 -15 7 -18z m75 10 c-3 -9 -8 -14 -10
-11 -3 3 -2 9 2 15 9 16 15 13 8 -4z m-563 -1 c0 -8 -19 -13 -24 -6 -3 5 1 9
9 9 8 0 15 -2 15 -3z m604 -10 c3 -8 2 -12 -4 -9 -6 3 -10 10 -10 16 0 14 7
11 14 -7z m376 12 c0 -2 -8 -10 -17 -17 -16 -13 -17 -12 -4 4 13 16 21 21 21
13z m-225 -25 c-9 -8 -36 -10 -30 -2 2 4 11 8 20 8 8 0 13 -3 10 -6z m75 -5
c-7 -7 -13 -7 -20 0 -6 6 -3 10 10 10 13 0 16 -4 10 -10z m86 2 c3 -4 -1 -5
-10 -4 -8 1 -18 5 -22 8 -3 4 1 5 10 4 8 -1 18 -5 22 -8z m-989 -11 c0 -8 -6
-14 -14 -14 -9 0 -10 4 -2 14 6 7 12 13 14 13 1 0 2 -6 2 -13z m42 0 c8 -10 7
-14 -2 -14 -8 0 -14 6 -14 14 0 7 1 13 2 13 2 0 8 -6 14 -13z m82 -4 c13 -16
12 -17 -3 -4 -17 13 -22 21 -14 21 2 0 10 -8 17 -17z m535 5 c5 4 6 3 2 -2 -4
-5 -3 -14 2 -21 7 -8 5 -12 -5 -12 -8 0 -13 3 -10 5 3 3 -3 15 -12 26 -14 15
-14 18 -2 8 9 -6 20 -8 25 -4z m33 -12 c9 -11 9 -16 -1 -22 -7 -4 -10 -4 -6 1
4 4 3 14 -3 22 -6 7 -9 13 -6 13 2 0 10 -6 16 -14z m182 -3 c13 -17 13 -17 -6
-3 -11 8 -22 16 -24 17 -2 2 0 3 6 3 6 0 17 -8 24 -17z m80 0 c13 -17 13 -17
-6 -3 -11 8 -22 16 -24 17 -2 2 0 3 6 3 6 0 17 -8 24 -17z m-881 -7 c0 -2 -8
-10 -17 -17 -16 -13 -17 -12 -4 4 13 16 21 21 21 13z m35 -6 c3 -6 -1 -7 -9
-4 -18 7 -21 14 -7 14 6 0 13 -4 16 -10z m955 6 c0 -2 -7 -7 -16 -10 -8 -3
-12 -2 -9 4 6 10 25 14 25 6z m-1063 -38 c-3 -7 -5 -2 -5 12 0 14 2 19 5 13 2
-7 2 -19 0 -25z m30 10 c-3 -8 -6 -5 -6 6 -1 11 2 17 5 13 3 -3 4 -12 1 -19z
m737 3 c-8 -9 -44 -11 -44 -3 0 4 11 8 25 8 13 0 22 -2 19 -5z m127 -8 c13
-16 12 -17 -3 -4 -17 13 -22 21 -14 21 2 0 10 -8 17 -17z m83 8 c-8 -8 -34
-10 -38 -2 -3 4 6 7 19 7 14 0 22 -2 19 -5z m-191 -31 c-6 -21 -25 -28 -20 -7
2 10 16 26 24 27 0 0 -1 -9 -4 -20z m77 4 c-6 -6 -7 -14 -3 -17 3 -4 2 -7 -4
-7 -6 0 -13 8 -15 18 -4 12 1 18 13 18 12 0 15 -4 9 -12z m123 -1 c-5 -12 -3
-14 7 -8 9 6 11 4 5 -4 -5 -9 -11 -9 -17 -3 -6 6 -7 15 -4 21 11 17 16 13 9
-6z m-933 -8 c0 -12 -19 -12 -23 0 -4 9 -1 12 9 8 7 -3 14 -7 14 -8z m-34 -31
c1 -9 -1 -13 -4 -9 -4 4 -7 10 -7 13 0 4 -4 14 -9 22 -7 12 -6 13 4 3 8 -7 15
-20 16 -29z m1038 0 c3 -8 2 -12 -4 -9 -6 3 -10 10 -10 16 0 14 7 11 14 -7z
m-1072 -8 c7 4 8 2 4 -5 -9 -13 -26 -5 -25 12 0 9 2 8 6 -1 2 -6 10 -9 15 -6z
m773 4 c-3 -5 -12 -10 -18 -10 -7 0 -6 4 3 10 19 12 23 12 15 0z m149 -2 c4 3
4 -1 0 -11 -3 -9 -11 -17 -17 -17 -6 0 -7 3 -4 7 4 3 -1 12 -11 20 -15 13 -15
13 4 4 12 -6 24 -7 28 -3z m56 -3 c5 3 12 0 16 -7 4 -7 4 -10 -1 -6 -4 4 -14
0 -22 -10 -12 -16 -13 -16 -6 2 4 13 3 17 -5 12 -8 -5 -10 -1 -5 10 4 11 8 13
11 6 2 -7 8 -10 12 -7z m63 -6 c-8 -8 -13 -7 -18 2 -5 8 -4 10 3 5 7 -4 12 -2
12 5 0 7 3 9 7 6 4 -4 2 -12 -4 -18z m-177 -5 c18 -14 18 -14 -6 -3 -31 14
-36 19 -24 19 6 0 19 -7 30 -16z m-852 -31 c0 -20 -6 -29 -20 -30 -16 -2 -16
-1 -1 3 9 3 15 10 11 15 -5 9 1 39 9 39 1 0 2 -12 1 -27z m17 4 c-10 -9 -11
-8 -5 6 3 10 9 15 12 12 3 -3 0 -11 -7 -18z m63 -4 c0 -15 -6 -29 -12 -31 -7
-2 -10 -7 -8 -11 3 -4 -5 -8 -17 -8 -19 -2 -18 0 6 16 15 10 24 20 21 24 -6 6
1 37 9 37 1 0 2 -12 1 -27z m954 13 c-10 -7 -15 -16 -11 -20 4 -4 -1 -4 -11 0
-17 6 -16 8 5 20 31 17 39 17 17 0z m-928 -6 c0 -5 -5 -10 -11 -10 -5 0 -7 5
-4 10 3 6 8 10 11 10 2 0 4 -4 4 -10z m864 -15 c-9 -14 -20 -23 -24 -20 -5 3
-11 0 -13 -5 -4 -7 -5 -6 -3 0 1 7 6 12 11 12 6 0 16 9 23 19 20 28 25 23 6
-6z m-924 5 c0 -5 -5 -10 -11 -10 -5 0 -7 5 -4 10 3 6 8 10 11 10 2 0 4 -4 4
-10z m830 0 c-8 -5 -22 -9 -30 -9 -10 0 -8 3 5 9 27 12 43 12 25 0z m54 1 c-3
-3 -9 -6 -12 -7 -19 -2 -41 -17 -37 -24 3 -5 1 -11 -4 -14 -17 -11 -5 24 13
37 18 13 52 20 40 8z m47 -34 c-10 -9 -11 -8 -5 6 3 10 9 15 12 12 3 -3 0 -11
-7 -18z m-953 -1 c-7 -8 -15 -12 -17 -11 -5 6 10 25 20 25 5 0 4 -6 -3 -14z
m89 -2 c-3 -3 -12 -4 -19 -1 -8 3 -5 6 6 6 11 1 17 -2 13 -5z m903 -10 c0 -9
5 -12 12 -8 7 5 8 3 3 -6 -6 -10 -11 -10 -20 3 -7 9 -16 13 -20 9 -5 -4 -5 -1
-1 6 10 17 26 15 26 -4z m-51 -10 c4 3 13 0 21 -5 11 -7 9 -8 -9 -6 -14 2 -26
9 -27 16 -1 6 0 7 3 1 2 -5 8 -8 12 -6z m96 -4 c3 -5 1 -10 -4 -10 -6 0 -11 5
-11 10 0 6 2 10 4 10 3 0 8 -4 11 -10z"/>
</g>
</svg>
